<?xml version="1.0" standalone="no"?>
<!DOCTYPE svg PUBLIC "-//W3C//DTD SVG 20010904//EN"
 "http://www.w3.org/TR/2001/REC-SVG-20010904/DTD/svg10.dtd">
<svg version="1.0" xmlns="http://www.w3.org/2000/svg"
 width="260.000000pt" height="260.000000pt" viewBox="0 0 260.000000 260.000000"
 preserveAspectRatio="xMidYMid meet">
<metadata>
Created by potrace 1.11, written by Peter Selinger 2001-2013
</metadata>
<g transform="translate(0.000000,260.000000) scale(0.100000,-0.100000)"
fill="#000000" stroke="none">
<path d="M1125 2519 c-303 -42 -528 -155 -728 -366 -199 -211 -320 -506 -343
-838 -6 -88 -4 -103 10 -118 16 -16 57 -17 472 -17 355 0 455 3 459 12 2 7 6
30 10 50 9 58 62 127 125 162 51 29 62 31 155 31 89 0 106 -3 151 -27 79 -41
135 -113 149 -191 l7 -37 453 0 c399 0 455 2 469 16 21 20 21 122 0 261 -30
206 -99 388 -208 552 -172 259 -418 425 -731 492 -106 23 -347 33 -450 18z
m690 -505 c82 -49 173 -124 212 -172 67 -84 126 -215 148 -332 4 -19 9 -42 11
-51 3 -12 -4 -18 -25 -21 -30 -4 -30 -4 -46 64 -36 161 -96 271 -195 361 -49
44 -160 119 -193 130 -9 3 12 57 22 57 3 0 33 -16 66 -36z m-885 -294 c-118
-83 -169 -145 -212 -263 -15 -41 -25 -56 -35 -52 -8 3 -19 5 -24 5 -17 0 -9
41 22 116 35 84 103 166 183 220 l51 34 18 -22 c19 -22 19 -23 -3 -38z"/>
<path d="M1248 1155 c-85 -48 -51 -185 46 -185 54 0 101 45 101 99 0 74 -82
122 -147 86z m88 -60 c15 -23 15 -27 0 -50 -28 -42 -86 -28 -86 21 0 52 58 71
86 29z"/>
<path d="M243 1008 c25 -432 311 -801 726 -937 59 -19 87 -21 326 -21 250 0
265 1 331 24 210 73 375 189 497 348 140 183 209 367 224 596 l6 92 -30 0 -30
0 -6 -107 c-22 -398 -293 -748 -681 -878 -71 -24 -85 -25 -316 -25 -231 0
-245 1 -316 25 -155 52 -279 129 -394 244 -173 174 -274 397 -287 639 -6 101
-6 102 -31 102 l-25 0 6 -102z"/>
<path d="M373 1013 c13 -199 78 -365 204 -524 110 -138 297 -260 473 -309 95
-27 286 -37 390 -21 334 53 619 294 732 621 22 65 48 216 48 283 0 47 0 47
-34 47 l-33 0 -6 -87 c-22 -312 -192 -572 -462 -708 -138 -70 -221 -88 -395
-88 -129 0 -155 3 -233 26 -161 50 -287 126 -394 241 -137 146 -223 360 -223
559 l0 57 -37 0 -36 0 6 -97z"/>
</g>
</svg>
