<?xml version="1.0" encoding="UTF-8"?>
<svg width="18px" height="18px" viewBox="0 0 18 18" version="1.1" xmlns="http://www.w3.org/2000/svg" xmlns:xlink="http://www.w3.org/1999/xlink">
<g><path fill="#000000" d="M29.8469593,9.07202918 L29.8469593,17.7738831 L30.0755434,18 L33.3159512,18 L33.5427066,17.7738831 L33.5427066,8.92979435 L35.8925509,8.92979435 L36.1193063,8.72191267 L36.344233,6.05774491 L36.1174776,5.81156924 L33.5427066,5.81156924 L33.5427066,3.92057542 C33.5427066,3.47745922 33.9029551,3.1182251 34.3473226,3.1182251 L36.1577084,3.1182251 L36.3844638,2.8921082 L36.3844638,0.227940432 L36.1577084,0 L33.0983392,0 C31.3025827,0 29.8469593,1.45334819 29.8469593,3.2422247 L29.8469593,5.81156924 L28.2267554,5.81156924 L28,6.03768615 L28,8.70367744 L28.2267554,8.92979435 L29.8469593,8.92979435 L29.8469593,9.07202918"></path></g></svg>
