<?xml version="1.0" encoding="UTF-8"?>
<svg width="18px" height="18px" viewBox="0 0 18 18" version="1.1" xmlns="http://www.w3.org/2000/svg" xmlns:xlink="http://www.w3.org/1999/xlink">
<g fill="#000000">
<path d="M16.4347826,12.6638368 C16.4347826,14.7458238 14.7458238,16.4347826 12.6638368,16.4347826 L5.33616321,16.4347826 C3.25417622,16.4347826 1.56521739,14.7458238 1.56521739,12.6638368 L1.56521739,5.33616321 C1.56521739,3.25417622 3.25417622,1.56521739 5.33616321,1.56521739 L12.6638368,1.56521739 C14.7458238,1.56521739 16.4347826,3.25417622 16.4347826,5.33616321 L16.4347826,12.6638368 Z M18,5.34911356 C18,2.39597508 15.6040249,0 12.6491615,0 L5.35083852,0 C2.39597508,0 0,2.39597508 0,5.34911356 L0,12.6508864 C0,15.6040249 2.39597508,18 5.35083852,18 L12.6491615,18 C15.6040249,18 18,15.6040249 18,12.6508864 L18,5.34911356 Z M11.9408696,8.81043478 C11.9408696,7.08475619 10.5356821,5.68 8.81139592,5.68 C7.08326521,5.68 5.68,7.08475619 5.68,8.81043478 C5.68,10.5361134 7.08326521,11.9408696 8.81139592,11.9408696 C10.5356821,11.9408696 11.9408696,10.5361134 11.9408696,8.81043478 Z M13.3913043,8.69472874 C13.3913043,11.2840323 11.2840323,13.3913043 8.69657561,13.3913043 C6.10727203,13.3913043 4,11.2840323 4,8.69472874 C4,6.10542516 6.10727203,4 8.69657561,4 C11.2840323,4 13.3913043,6.10542516 13.3913043,8.69472874 Z M14.8695652,4.30337845 C14.8695652,4.95285966 14.344164,5.47826087 13.6946828,5.47826087 C13.0471403,5.47826087 12.5217391,4.95285966 12.5217391,4.30337845 C12.5217391,3.655836 13.0471403,3.13043478 13.6946828,3.13043478 C14.344164,3.13043478 14.8695652,3.655836 14.8695652,4.30337845 Z"></path></g>
</svg>
