<?xml version="1.0" encoding="UTF-8"?>
<svg width="16px" height="16px" viewBox="0 0 16 16" version="1.1" xmlns="http://www.w3.org/2000/svg" xmlns:xlink="http://www.w3.org/1999/xlink">
<g id="map" fill="#555555" stroke="none" stroke-width="1" fill-rule="nonzero">
<g>
    <path d="M8,1 C4.96254254,1 2.5,3.3568203 2.5,6.2638423 C2.5,6.48638781 2.51865391,6.70328089 2.54708661,6.91828981 C3.01704906,11.0300537 7.64286469,15.7690222 7.64286469,15.7690222 C7.72529046,15.8572991 7.8047471,15.911754 7.88126687,15.9511666 L7.8852042,15.9530508 L8.03924422,16 L8.19328424,15.9530508 L8.19722157,15.9511666 C8.27374134,15.9117231 8.35323025,15.8544574 8.43562375,15.7690222 C8.43562375,15.7690222 12.9947307,11.0215905 13.4538816,6.90893085 C13.4813461,6.6967327 13.5,6.48169289 13.5,6.26291567 C13.4989995,3.3568203 11.0374575,1 8,1 Z M8.00047899,10 C6.07064915,10 4.5,8.42956577 4.5,6.5 C4.5,4.57043423 6.07064915,3 8.00047899,3 C9.93030884,3 11.5,4.57043423 11.5,6.5 C11.5,8.42956577 9.93030884,10 8.00047899,10 Z" id="Shape"></path>
</g>
</g>
</svg>
